<?xml version="1.0" standalone="no"?>
<!DOCTYPE svg PUBLIC "-//W3C//DTD SVG 20010904//EN"
 "http://www.w3.org/TR/2001/REC-SVG-20010904/DTD/svg10.dtd">
<svg version="1.0" xmlns="http://www.w3.org/2000/svg"
 width="480.000000pt" height="480.000000pt" viewBox="0 0 480.000000 480.000000"
 preserveAspectRatio="xMidYMid meet">
<g transform="translate(0.000000,480.000000) scale(0.100000,-0.100000)"
fill="#000000" stroke="none">
<path d="M2315 4486 c-26 -11 -248 -135 -730 -406 -66 -38 -318 -179 -560
-314 -242 -136 -450 -257 -464 -269 -13 -12 -32 -40 -42 -62 -18 -38 -19 -89
-19 -1030 0 -943 1 -992 19 -1030 10 -22 31 -52 47 -67 24 -22 547 -319 1579
-897 187 -105 190 -106 255 -106 65 0 67 1 265 112 1111 621 1526 857 1559
884 81 68 76 -9 76 1094 0 581 -4 993 -9 1013 -18 62 -64 104 -187 174 -746
419 -1606 897 -1633 906 -44 16 -118 15 -156 -2z m183 -37 c6 -1 12 -6 12 -9
0 -4 15 -14 33 -21 17 -7 38 -19 45 -26 22 -22 69 -43 77 -35 5 4 5 2 2 -4 -8
-14 20 -27 35 -17 7 3 8 1 4 -5 -4 -7 -1 -12 6 -12 8 0 29 -11 48 -25 19 -14
42 -25 53 -25 10 0 16 -4 13 -8 -3 -5 10 -15 29 -22 19 -8 35 -18 35 -22 0 -5
4 -7 9 -3 5 3 12 1 16 -5 3 -5 34 -24 68 -41 34 -17 69 -37 78 -45 8 -8 23
-14 32 -14 9 0 17 -4 17 -10 0 -5 5 -10 10 -10 17 0 101 -56 94 -62 -3 -4 3
-4 15 -1 13 3 21 1 21 -6 0 -7 4 -10 9 -6 5 3 12 1 16 -5 7 -11 87 -55 94 -51
2 2 7 -2 10 -7 3 -5 24 -19 46 -31 68 -36 104 -58 121 -72 10 -8 19 -13 21
-11 5 4 101 -47 108 -58 4 -6 11 -8 16 -5 5 4 9 2 9 -3 0 -7 61 -42 80 -47 3
0 21 -11 40 -23 19 -12 53 -31 75 -43 22 -11 56 -29 75 -41 19 -11 53 -30 75
-41 22 -12 47 -27 55 -33 8 -7 18 -12 22 -11 3 1 19 -9 35 -23 15 -13 30 -24
33 -25 3 0 4 -4 2 -8 -1 -5 2 -6 7 -2 6 3 22 -12 36 -35 l25 -40 0 -1002 c0
-551 -4 -1004 -8 -1007 -4 -4 -14 -19 -22 -36 -15 -28 -97 -82 -235 -151 -27
-14 -70 -38 -95 -54 -25 -16 -67 -41 -95 -54 -27 -14 -72 -39 -100 -55 -68
-41 -163 -91 -171 -90 -4 0 -10 -4 -13 -9 -11 -17 -138 -81 -146 -74 -5 4 -5
2 -1 -5 4 -8 -12 -20 -44 -35 -27 -13 -50 -26 -50 -30 0 -5 -5 -8 -12 -8 -6 0
-47 -21 -92 -47 -45 -25 -106 -60 -136 -76 -30 -16 -63 -37 -72 -45 -10 -8
-18 -11 -18 -6 0 5 -4 4 -8 -2 -4 -7 -36 -27 -72 -46 -165 -88 -315 -172 -318
-180 -2 -4 -9 -8 -15 -8 -6 0 -30 -10 -54 -21 -67 -32 -128 -23 -233 34 -47
25 -89 46 -94 46 -5 -1 -12 3 -15 8 -6 9 -134 82 -196 113 -16 8 -32 17 -35
20 -16 17 -72 50 -65 39 6 -9 2 -9 -11 2 -10 9 -53 34 -94 55 -41 22 -77 42
-80 45 -3 4 -34 22 -70 40 -36 19 -67 36 -70 40 -3 3 -48 29 -100 58 -52 28
-102 56 -110 61 -38 22 -106 58 -115 61 -5 1 -16 9 -23 16 -7 7 -20 13 -28 13
-8 0 -12 5 -9 10 3 6 0 10 -7 10 -13 0 -99 40 -108 51 -3 3 -17 12 -32 20 -77
40 -184 103 -189 111 -3 5 -9 9 -13 9 -10 -2 -70 31 -78 43 -4 6 -8 7 -8 3 0
-11 -70 31 -88 53 -9 10 -11 10 -6 1 15 -30 -17 2 -42 40 l-24 39 0 1001 c0
731 3 1005 11 1015 6 8 8 14 4 14 -5 0 2 8 13 19 12 10 19 20 16 24 -3 3 0 8
7 13 8 4 10 3 5 -4 -4 -7 -2 -12 3 -12 6 0 11 6 11 13 0 11 47 44 61 43 4 -1
15 6 25 14 11 9 37 25 59 37 22 11 56 30 75 41 19 12 67 37 105 58 39 20 73
42 77 48 4 6 8 8 8 4 0 -4 28 9 63 30 34 21 98 58 142 81 44 24 90 50 102 58
13 9 23 11 23 7 0 -5 4 -3 9 5 5 8 17 16 27 17 9 2 20 7 23 13 10 16 119 70
127 63 4 -4 4 -2 0 5 -4 7 3 14 16 18 13 4 44 20 71 36 26 16 54 29 62 29 8 0
15 4 15 9 0 5 10 13 22 17 12 3 39 19 61 35 22 16 46 29 53 29 7 0 27 12 45
28 18 15 33 25 33 24 2 -8 56 22 56 30 0 4 3 7 8 6 12 -3 52 13 52 22 0 4 11
11 25 14 14 4 25 11 25 17 0 6 4 8 8 5 5 -3 18 2 28 12 11 9 65 41 119 69 99
52 100 53 175 48 41 -2 81 -5 88 -6z"/>
<path d="M2238 3790 c-320 -40 -593 -175 -824 -404 -207 -207 -333 -444 -391
-733 -23 -121 -23 -385 0 -506 58 -289 184 -526 391 -732 206 -205 425 -324
714 -387 118 -26 383 -31 502 -9 296 53 544 183 756 395 98 99 224 263 224
292 0 6 -12 16 -27 23 -16 7 -151 80 -301 163 -150 82 -275 148 -277 146 -1
-1 -26 -32 -54 -67 -94 -118 -192 -187 -336 -237 -72 -26 -93 -28 -215 -28
-122 0 -143 2 -215 27 -294 102 -485 365 -485 667 0 302 191 565 485 667 72
25 93 27 215 27 122 0 143 -2 215 -27 44 -16 109 -45 145 -67 68 -40 169 -133
210 -194 16 -22 30 -34 39 -31 8 3 132 73 276 155 143 81 273 154 288 161 15
7 27 17 27 23 -1 27 -141 203 -228 288 -259 251 -573 383 -932 393 -74 2 -165
0 -202 -5z m406 -40 c90 -15 154 -34 251 -72 71 -29 143 -60 160 -71 133 -83
168 -107 228 -156 37 -30 67 -59 67 -63 0 -4 7 -8 16 -8 8 0 13 -4 9 -9 -3 -5
4 -16 15 -24 18 -12 34 -31 108 -126 15 -19 33 -40 40 -47 7 -8 11 -14 7 -14
-3 0 -1 -8 4 -18 13 -24 -4 -38 -106 -93 -43 -23 -80 -45 -83 -50 -3 -4 -19
-14 -35 -21 -37 -16 -208 -110 -215 -117 -8 -10 -96 -51 -108 -51 -6 0 -16 10
-23 23 -12 23 -117 127 -166 163 -35 27 -143 86 -143 79 0 -3 -10 0 -22 6 -30
16 -192 48 -245 49 -51 0 -245 -37 -253 -49 -3 -5 -18 -11 -35 -15 -16 -4 -48
-19 -71 -34 -23 -15 -61 -40 -85 -56 -24 -16 -46 -33 -48 -38 -1 -5 -22 -29
-45 -52 -129 -136 -186 -285 -186 -488 0 -135 37 -279 93 -362 75 -112 93
-136 101 -136 4 0 26 -17 47 -37 21 -21 47 -46 58 -55 31 -26 148 -87 155 -81
3 3 12 0 20 -6 19 -16 186 -51 240 -51 61 0 218 30 244 47 13 8 26 12 29 9 6
-6 125 57 154 82 58 49 159 151 159 161 0 5 10 15 21 22 24 12 73 -5 144 -52
22 -15 59 -35 83 -45 23 -10 42 -22 42 -26 0 -5 4 -8 10 -8 5 0 32 -13 60 -30
27 -16 50 -26 50 -22 0 4 4 3 8 -3 9 -12 30 -26 102 -65 84 -45 84 -45 66 -62
-8 -9 -17 -22 -18 -29 -2 -8 -7 -19 -13 -25 -16 -19 -37 -45 -88 -111 -27 -34
-55 -64 -64 -67 -8 -3 -11 -11 -7 -17 4 -8 3 -9 -4 -5 -6 3 -15 -1 -21 -11 -5
-10 -33 -36 -61 -58 -29 -22 -57 -44 -64 -50 -34 -30 -87 -65 -136 -90 -30
-15 -57 -30 -60 -34 -5 -6 -58 -33 -70 -36 -35 -8 -80 -29 -80 -37 0 -6 -3 -9
-6 -6 -3 4 -31 -2 -62 -13 -161 -54 -466 -75 -632 -43 -41 8 -88 17 -105 20
-61 10 -286 96 -315 120 -8 6 -39 24 -68 38 -47 24 -70 39 -106 71 -6 6 -39
32 -73 59 -35 27 -63 53 -63 57 0 5 -7 9 -15 9 -8 0 -15 7 -15 15 0 8 -4 15
-9 15 -4 0 -30 28 -57 62 -27 35 -53 68 -59 74 -25 28 -44 54 -41 54 3 0 -11
26 -30 58 -192 316 -241 665 -150 1066 14 60 87 242 109 271 18 23 75 125 71
125 -3 0 1 6 8 14 7 7 25 28 40 47 75 96 91 115 104 122 8 4 14 15 14 22 0 8
7 15 15 15 7 0 18 6 22 14 20 34 165 141 284 211 56 32 250 110 298 120 9 2
52 10 96 19 44 8 89 17 100 19 61 13 297 6 409 -13z"/>
</g>
</svg>
