<?xml version="1.0" standalone="no"?> <!DOCTYPE svg PUBLIC "-//W3C//DTD SVG 20010904//EN" "http://www.w3.org/TR/2001/REC-SVG-20010904/DTD/svg10.dtd"> <svg version="1.0" xmlns="http://www.w3.org/2000/svg" width="100.000000pt" height="100.000000pt" viewBox="0 0 100.000000 100.000000" preserveAspectRatio="xMidYMid meet"> <g transform="translate(0.000000,100.000000) scale(0.100000,-0.100000)" fill="#d4660c" stroke="none"> <path d="M471 983 c-15 -13 -19 -25 -15 -41 8 -26 48 -39 69 -22 21 18 19 57 -4 70 -25 13 -25 13 -50 -7z m36 1 c-3 -4 -2 -16 4 -27 8 -14 8 -18 0 -13 -6 4 -11 2 -11 -5 0 -10 -3 -10 -11 -2 -13 13 -3 53 13 53 6 0 8 -3 5 -6z"/> <path d="M726 904 c-24 -23 -19 -53 10 -66 31 -14 57 -1 62 31 7 45 -40 67 -72 35z m54 -29 c0 -18 -15 -26 -32 -20 -23 9 -17 30 9 31 13 1 23 -4 23 -11z"/> <path d="M203 903 c-7 -2 -13 -17 -13 -32 0 -52 48 -69 75 -27 29 44 -10 80 -62 59z m43 -33 c0 -11 -5 -20 -11 -20 -21 0 -25 13 -7 26 9 7 17 14 17 14 1 0 1 -9 1 -20z"/> <path d="M422 888 c-7 -7 -12 -30 -12 -52 l0 -41 83 0 c91 0 145 -20 205 -75 18 -16 35 -30 36 -30 2 0 16 18 30 41 26 39 27 42 10 60 -13 15 -25 18 -46 14 -25 -6 -28 -4 -28 19 0 22 -23 46 -44 46 -3 0 -19 -18 -35 -40 -32 -44 -43 -42 -35 9 3 18 0 39 -7 47 -17 21 -52 17 -67 -7 l-14 -21 -14 21 c-17 23 -44 27 -62 9z m19 -27 c-9 -6 -4 -8 14 -8 19 0 23 2 14 8 -10 6 -10 9 -2 9 6 0 14 -4 18 -9 3 -6 14 -9 25 -8 10 1 17 4 14 8 -2 4 0 10 6 14 5 3 10 1 10 -5 0 -6 5 -8 10 -5 6 3 10 2 10 -4 0 -5 -6 -12 -12 -14 -8 -3 -5 -6 5 -6 40 -2 2 -21 -41 -21 -57 0 -99 24 -81 46 6 8 14 12 18 9 3 -3 -1 -10 -8 -14z m229 -35 c-1 -4 9 -16 21 -27 21 -18 21 -19 3 -20 -11 0 -14 -3 -6 -6 7 -3 19 1 27 7 11 9 15 10 15 1 0 -7 5 -9 10 -6 6 3 10 -5 10 -19 0 -20 -4 -24 -17 -19 -12 5 -14 3 -8 -8 8 -12 6 -12 -8 0 -19 15 -23 26 -5 15 7 -4 8 -3 4 4 -4 7 -12 12 -18 12 -7 0 -26 10 -43 22 -29 20 -31 22 -16 39 16 17 34 21 31 5z"/> <path d="M302 848 c-7 -7 -12 -19 -12 -28 0 -24 -10 -31 -30 -20 -13 7 -23 3 -38 -13 l-22 -23 27 -39 c14 -22 27 -41 28 -43 1 -1 19 14 39 33 21 20 53 43 72 53 l35 18 -28 37 c-29 38 -51 45 -71 25z m38 -68 c-11 -21 -25 -28 -15 -7 3 6 -2 2 -11 -10 -9 -13 -23 -23 -31 -23 -9 0 -13 -6 -9 -15 4 -12 2 -13 -13 -6 -22 12 -35 50 -18 52 7 1 17 2 22 4 6 1 17 3 26 3 11 2 15 10 14 27 -2 14 1 23 6 19 5 -3 9 1 9 8 0 7 7 3 15 -10 12 -16 13 -26 5 -42z"/> <path d="M510 679 l0 -79 33 0 c44 0 52 7 75 67 l20 52 -27 10 c-14 5 -43 14 -63 20 l-38 9 0 -79z m46 24 c-5 -16 -4 -16 7 -3 18 22 38 23 30 2 -3 -9 -11 -23 -16 -30 -7 -9 -5 -11 9 -6 18 7 18 6 -1 -15 l-20 -23 -16 21 c-10 12 -16 29 -14 39 2 9 4 20 4 25 1 4 6 7 12 7 6 0 8 -8 5 -17z"/> <path d="M405 735 c-22 -8 -40 -15 -41 -15 -1 0 8 -27 20 -60 21 -59 22 -60 58 -60 l38 0 0 75 c0 84 -2 86 -75 60z m31 -23 c12 -8 19 -92 7 -92 -11 0 -40 20 -30 20 4 0 1 13 -7 29 -11 21 -12 31 -3 40 13 13 18 13 33 3z"/> <path d="M806 701 c-3 -4 -19 -11 -36 -15 l-31 -6 24 -47 c14 -27 27 -64 31 -85 l7 -36 42 16 c23 9 45 20 48 25 12 17 -3 47 -29 61 -16 8 -21 16 -13 20 15 9 14 49 -1 64 -14 14 -35 16 -42 3z m28 -57 c-2 -25 2 -37 19 -49 14 -10 17 -15 7 -15 -12 0 -12 -2 -2 -9 11 -7 10 -10 -3 -15 -27 -10 -45 -7 -45 8 0 8 6 17 13 19 8 4 7 6 -3 6 -23 1 -42 58 -25 74 25 25 43 16 39 -19z"/> <path d="M145 683 c-18 -17 -19 -28 -4 -54 9 -17 7 -21 -9 -26 -21 -5 -39 -50 -25 -64 4 -4 27 -14 51 -22 l42 -15 0 27 c0 14 11 52 24 84 13 31 21 59 17 61 -3 2 -23 8 -44 14 -30 8 -40 7 -52 -5z m51 -40 c-3 -7 0 -13 5 -13 7 0 4 -11 -6 -26 -9 -14 -14 -28 -11 -31 3 -3 1 -14 -5 -25 -8 -14 -14 -17 -23 -9 -7 6 -15 8 -18 5 -3 -3 -9 -1 -13 5 -3 6 -1 11 5 11 6 0 8 5 5 10 -4 6 -1 9 7 8 7 -2 12 3 11 10 -2 6 2 12 8 12 11 0 9 16 -7 54 -5 14 -4 17 4 12 7 -4 12 -2 12 5 0 8 4 8 15 -1 9 -7 14 -19 11 -27z"/> <path d="M647 660 c-9 -23 -11 -40 -6 -40 9 0 48 18 58 26 2 2 -6 14 -16 28 l-20 25 -16 -39z"/> <path d="M900 680 c-27 -27 -25 -46 4 -65 19 -13 29 -14 45 -5 28 14 29 65 2 80 -26 13 -28 13 -51 -10z m44 -33 c-9 -23 -30 -28 -30 -6 0 12 5 18 13 15 7 -3 13 0 13 6 0 6 2 9 5 6 3 -3 3 -12 -1 -21z"/> <path d="M311 666 l-22 -23 38 -16 c21 -8 39 -14 41 -13 3 3 -27 76 -31 76 -2 0 -14 -11 -26 -24z"/> <path d="M32 668 c-29 -29 7 -86 47 -73 26 8 38 50 21 70 -15 18 -51 20 -68 3z m54 -21 c9 -9 -16 -38 -26 -32 -13 8 -7 43 7 41 7 -1 15 -5 19 -9z"/> <path d="M260 581 c-17 -60 -16 -61 56 -61 l65 0 -3 31 c-3 27 -9 32 -55 48 l-53 18 -10 -36z m54 -8 c4 -4 15 -8 23 -8 9 0 17 -6 19 -13 1 -7 0 -8 -3 -2 -3 6 -15 4 -34 -5 -26 -14 -29 -14 -29 0 0 9 -4 13 -10 10 -5 -3 -10 -2 -10 4 0 5 6 12 13 14 18 8 23 8 31 0z"/> <path d="M670 600 c-38 -15 -45 -22 -48 -49 l-3 -31 65 0 c72 0 73 1 55 63 -11 42 -8 41 -69 17z m48 -33 c0 -19 -6 -23 -34 -23 -18 0 -36 6 -38 13 -5 12 12 18 43 14 7 -2 10 2 6 8 -3 6 0 11 8 11 8 0 15 -10 15 -23z"/> <path d="M403 566 c4 -10 7 -24 7 -32 0 -9 11 -14 35 -14 31 0 35 3 35 25 0 20 -5 25 -24 25 -13 0 -32 3 -42 7 -14 5 -16 3 -11 -11z"/> <path d="M548 573 c-33 -4 -38 -8 -38 -29 0 -21 4 -24 39 -24 35 0 39 3 43 30 3 17 2 29 -1 28 -3 -1 -23 -3 -43 -5z"/> <path d="M791 442 c-6 -32 -18 -67 -26 -78 -21 -28 -19 -32 23 -43 53 -15 61 -14 74 14 8 19 8 28 -3 41 -11 14 -11 18 -1 22 22 7 43 34 40 51 -3 15 -30 32 -74 45 -19 6 -22 1 -33 -52z m69 8 c6 -11 8 -21 5 -21 -3 -1 -9 -3 -15 -4 -5 -1 -14 -3 -20 -4 -5 0 -10 -6 -10 -12 0 -8 5 -8 15 1 10 9 15 9 15 1 0 -6 -4 -11 -9 -11 -10 0 -9 -26 2 -36 13 -14 -5 -25 -21 -12 -12 10 -14 10 -8 1 11 -19 -9 -16 -25 4 -10 11 -10 14 -1 9 7 -4 12 -2 13 6 2 32 9 51 25 69 17 19 17 20 -2 13 -15 -5 -16 -4 -4 5 21 15 28 14 40 -9z"/> <path d="M153 477 c-18 -7 -37 -17 -44 -23 -17 -19 -1 -51 31 -63 17 -5 30 -13 30 -16 0 -3 -4 -4 -9 -1 -5 3 -14 -1 -21 -9 -16 -19 1 -65 23 -65 12 0 77 19 85 25 1 1 -6 22 -17 46 -11 24 -23 61 -26 82 -8 41 -7 40 -52 24z m32 -35 c-2 -3 0 -14 6 -25 9 -15 8 -18 -3 -11 -8 5 -7 1 3 -12 29 -35 30 -52 2 -59 -32 -8 -41 1 -26 25 10 15 8 22 -9 42 -11 12 -25 22 -32 20 -6 -1 -3 4 7 12 16 13 64 19 52 8z"/> <path d="M250 466 c0 -28 19 -86 29 -86 4 0 11 4 17 9 5 5 26 14 47 21 33 10 37 15 37 46 l0 34 -65 0 c-62 0 -65 -1 -65 -24z m59 -18 c1 18 36 11 36 -7 0 -15 -52 -25 -60 -11 -3 4 -2 16 2 26 6 16 7 16 14 -2 4 -10 8 -13 8 -6z"/> <path d="M410 457 c0 -32 1 -33 35 -29 31 4 35 8 35 33 0 26 -3 29 -35 29 -33 0 -35 -2 -35 -33z"/> <path d="M510 461 c0 -27 3 -29 43 -33 23 -3 43 -4 43 -4 1 1 -1 16 -3 34 -5 30 -8 32 -44 32 -36 0 -39 -2 -39 -29z"/> <path d="M620 463 c0 -16 4 -33 8 -39 6 -9 83 -44 97 -44 6 0 25 71 25 93 0 14 -10 17 -65 17 -64 0 -65 0 -65 -27z m107 -19 c0 -8 -4 -14 -9 -14 -4 0 -8 -8 -8 -17 -1 -17 -1 -17 -11 0 -5 9 -19 17 -29 17 -11 0 -20 2 -20 4 0 2 -2 10 -5 18 -4 10 5 12 38 10 29 -3 44 -8 44 -18z"/> <path d="M900 395 c-7 -8 -10 -25 -6 -39 11 -45 71 -45 82 0 8 30 -11 54 -41 54 -12 0 -28 -7 -35 -15z m46 -27 c10 -12 14 -18 7 -15 -6 4 -14 1 -16 -5 -3 -7 -6 -4 -6 7 -1 17 -3 17 -11 5 -11 -17 -13 -10 -4 14 8 20 7 20 30 -6z"/> <path d="M36 384 c-9 -8 -16 -22 -16 -29 0 -7 7 -21 16 -29 30 -30 74 -13 74 29 0 42 -44 59 -74 29z m38 -10 c9 -3 13 -10 10 -16 -3 -5 -13 -4 -22 4 -12 9 -11 6 2 -10 11 -12 15 -22 10 -22 -15 0 -30 14 -28 28 3 25 3 25 28 16z"/> <path d="M383 341 l-20 -59 22 -10 c13 -6 39 -14 59 -17 l36 -7 0 76 0 76 -39 0 c-38 0 -38 -1 -58 -59z m61 23 c3 -9 6 -34 6 -57 -1 -39 -2 -41 -15 -23 -8 11 -15 14 -15 7 0 -7 -4 -9 -10 -6 -13 8 -13 38 2 70 13 29 23 32 32 9z"/> <path d="M510 324 l0 -77 40 7 c21 3 50 11 64 17 l24 11 -18 50 c-20 57 -32 68 -77 68 l-33 0 0 -76z m66 38 c16 -10 27 -69 15 -77 -6 -3 -11 0 -11 7 0 10 -2 11 -8 0 -10 -15 -42 -5 -42 13 0 8 5 17 11 21 8 5 8 9 -1 14 -14 9 -5 30 13 30 7 0 17 -4 23 -8z"/> <path d="M328 371 l-37 -16 23 -28 23 -29 17 42 c9 24 16 44 14 45 -2 1 -20 -5 -40 -14z"/> <path d="M647 340 l16 -40 18 22 c11 11 19 24 19 29 0 5 -53 29 -66 29 -1 0 5 -18 13 -40z"/> <path d="M235 280 c-14 -20 -25 -43 -25 -51 0 -20 34 -39 59 -32 16 4 21 1 21 -14 0 -53 56 -57 88 -7 13 20 22 37 20 39 -2 1 -17 10 -35 18 -17 9 -47 32 -67 50 l-35 34 -26 -37z m45 -4 c0 -3 -4 -8 -10 -11 -5 -3 -10 -1 -10 4 0 6 5 11 10 11 6 0 10 -2 10 -4z m17 -36 c3 -12 12 -17 24 -15 10 2 19 -1 19 -6 0 -6 4 -8 8 -5 5 3 9 -1 9 -9 0 -8 -4 -15 -9 -15 -5 0 -6 -5 -2 -12 4 -7 3 -8 -4 -4 -7 4 -12 1 -12 -6 0 -10 -3 -9 -10 2 -6 9 -5 17 1 21 6 3 -1 9 -15 13 -14 3 -26 10 -26 15 0 5 -8 7 -18 4 -12 -3 -18 1 -18 15 0 26 47 27 53 2z"/> <path d="M704 286 c-17 -18 -47 -40 -68 -50 l-37 -17 31 -40 c18 -21 37 -39 44 -39 17 0 46 33 46 52 0 10 7 14 23 11 14 -3 29 3 41 16 19 20 18 22 -9 61 -15 22 -30 40 -34 39 -3 0 -20 -15 -37 -33z m41 -16 c4 -6 10 -8 14 -6 3 3 7 -4 7 -14 0 -11 -2 -17 -4 -15 -3 2 -20 -2 -40 -11 -45 -18 -51 -12 -19 20 14 14 22 27 19 30 -3 3 0 6 6 6 6 0 14 -5 17 -10z m-73 -47 c-8 -3 -5 -11 10 -25 13 -11 17 -17 11 -13 -7 3 -13 1 -13 -4 0 -6 -4 -11 -10 -11 -5 0 -9 6 -7 13 1 6 -4 11 -10 10 -7 -2 -13 0 -13 4 0 12 33 43 39 37 3 -4 0 -9 -7 -11z"/> <path d="M560 208 c-14 -5 -52 -7 -85 -5 l-60 6 5 -52 c5 -47 7 -52 32 -55 19 -2 30 3 38 18 l11 21 18 -22 c14 -17 24 -20 44 -15 25 6 27 10 27 61 0 30 -1 55 -2 54 -2 0 -14 -5 -28 -11z m-40 -45 c11 -10 20 -24 20 -33 0 -10 -3 -11 -8 -4 -9 14 -56 39 -48 25 6 -9 -22 -31 -38 -31 -7 0 -8 45 -2 51 12 12 58 7 76 -8z m40 8 c0 -5 3 -16 6 -25 9 -24 -9 -18 -29 9 -17 24 -17 25 3 25 11 0 20 -4 20 -9z"/> <path d="M742 168 c-15 -15 -15 -51 0 -66 18 -18 43 -15 63 8 37 41 -24 97 -63 58z m48 -32 c0 -7 -6 -13 -14 -13 -11 0 -13 9 -7 35 2 9 21 -11 21 -22z"/> <path d="M202 158 c-29 -29 7 -86 47 -73 26 8 38 50 21 70 -15 18 -51 20 -68 3z m48 -23 c0 -8 0 -18 0 -22 0 -16 -33 -7 -36 10 -1 9 2 15 7 11 5 -3 9 0 9 5 0 6 5 11 10 11 6 0 10 -7 10 -15z"/> <path d="M470 75 c-28 -33 14 -84 56 -68 20 7 29 50 14 68 -16 19 -54 19 -70 0z m54 -33 c-3 -33 -10 -37 -30 -18 -12 12 -13 20 -5 30 18 21 38 15 35 -12z"/> </g> </svg>